Coordinates
version=1
nRows=29
nColumns=24
inDegrees=yes

Units are S.I. units (second, meters, Newtons, ...)
Angles are in degrees.

endheader
time	pelvis_tilt	pelvis_list	pelvis_rotation	pelvis_tx	pelvis_ty	pelvis_tz	hip_flexion_r	hip_adduction_r	hip_rotation_r	knee_angle_r	ankle_angle_r	subtalar_angle_r	mtp_angle_r	hip_flexion_l	hip_adduction_l	hip_rotation_l	knee_angle_l	ankle_angle_l	subtalar_angle_l	mtp_angle_l	lumbar_extension	lumbar_bending	lumbar_rotation
      4.45500000	     -5.85394869	     -5.68889175	      2.03003769	     -0.07105773	     -0.01344275	     -0.11235323	     10.00757532	     15.10795481	     14.01036494	    -16.29280158	     -0.18660777	     -5.82008848	      7.38651920	     33.00779875	     -6.59437634	     -8.65291847	    -65.55915673	     -1.85148371	     -7.21883491	    -30.35894905	      5.67611116	      4.42961836	     -0.62085376
      4.46000000	     -5.82940105	     -5.51889131	      1.82314451	     -0.06512643	     -0.01315121	     -0.11216467	      9.29401068	     14.94770765	     14.33293770	    -15.96286758	      0.01643614	     -5.79734847	      7.50728833	     33.60553379	     -6.41881745	     -8.90430684	    -64.63076467	     -1.11724094	     -6.72861611	    -30.08907251	      5.61890293	      4.28689956	     -0.32810458
      4.46500000	     -5.77265673	     -5.36132309	      1.61607168	     -0.05922268	     -0.01287924	     -0.11199367	      8.55816418	     14.79794562	     14.65855310	    -15.64651017	      0.18021052	     -5.78719847	      7.62801512	     34.13957408	     -6.27490208	     -9.18592043	    -63.62576203	     -0.39626047	     -6.10998251	    -29.71297712	      5.52162350	      4.16596347	      0.00282143
      4.47000000	     -5.75253531	     -5.18611877	      1.44751630	     -0.05334825	     -0.01270233	     -0.11189714	      7.89017106	     14.62223629	     14.95032882	    -15.37148857	      0.37766390	     -5.81556354	      7.73276114	     34.68560833	     -6.07360896	     -9.42384883	    -62.52936001	      0.28734919	     -5.41563617	    -29.26401635	      5.46214788	      4.01855302	      0.26071463
      4.47500000	     -5.74069933	     -5.01185321	      1.29887275	     -0.04750306	     -0.01258504	     -0.11186864	      7.25701222	     14.44328137	     15.22323645	    -15.13745479	      0.58000890	     -5.86102811	      7.81209692	     35.21031382	     -5.86049349	     -9.65487566	    -61.34828031	      0.93983409	     -4.63835265	    -28.74079149	      5.40897749	      3.88120645	      0.50155046
      4.48000000	     -5.73378222	     -4.83821400	      1.15381270	     -0.04167950	     -0.01251521	     -0.11185388	      6.64704339	     14.26629719	     15.48214766	    -14.92988001	      0.78439562	     -5.92455377	      7.85712512	     35.70209537	     -5.64158520	     -9.87244267	    -60.07853445	      1.55708851	     -3.78599068	    -28.13803483	      5.36095753	      3.74182075	      0.73320194
      4.48500000	     -5.73992029	     -4.66596509	      1.03090127	     -0.03589903	     -0.01250919	     -0.11189411	      6.07538027	     14.08871183	     15.71412851	    -14.75707768	      0.99307224	     -6.00513334	      7.86349291	     36.17891479	     -5.40827540	    -10.07805661	    -58.72691935	      2.12535833	     -2.89924807	    -27.48975933	      5.31677999	      3.60232262	      0.93987580
      4.49000000	     -5.75888991	     -4.49866955	      0.92012708	     -0.03014229	     -0.01255786	     -0.11197366	      5.54105762	     13.91717548	     15.91399401	    -14.62194237	      1.21027520	     -6.09646158	      7.83612422	     36.63302232	     -5.16691553	    -10.26847942	    -57.29045084	      2.63850192	     -1.99454150	    -26.83070337	      5.28360214	      3.46746519	      1.12391857
      4.49500000	     -5.78723889	     -4.32637260	      0.88657720	     -0.02446151	     -0.01263910	     -0.11206974	      5.04209139	     13.75395047	     16.09158464	    -14.54483312	      1.47623330	     -6.26020057	      7.36983594	     37.04362922	     -4.87712330	    -10.38208117	    -55.61423470	      2.29946558	     -1.38973620	    -23.61178669	      5.24829074	      3.30683960	      1.23463321
      4.50000000	     -5.88063901	     -4.17567465	      0.80446009	     -0.01883226	     -0.01286981	     -0.11226575	      4.66189973	     13.59358769	     16.18097915	    -14.50860253	      1.72249792	     -6.28173872	      7.47224267	     37.52668531	     -4.62327255	    -10.57126965	    -54.04944663	      2.79813497	     -0.51203869	    -23.42010546	      5.27277286	      3.19251448	      1.35743686
      4.50500000	     -5.95673986	     -4.04396645	      0.72411585	     -0.01318337	     -0.01312484	     -0.11244644	      4.26018232	     13.45669311	     16.23641330	    -14.46306041	      1.94837108	     -6.34029419	      7.51769279	     37.94686735	     -4.38563344	    -10.72987761	    -52.41679229	      3.25945000	      0.37004636	    -23.25159530	      5.28347957	      3.09380913	      1.48240840
      4.51000000	     -5.96867273	     -3.93818499	      0.61118478	     -0.00752784	     -0.01334072	     -0.11260741	      3.77935510	     13.34600873	     16.34637247	    -14.41032424	      2.15573547	     -6.34123036	      7.52865818	     38.24831853	     -4.21858726	    -10.96029120	    -50.72791138	      3.70681109	      1.27385336	    -23.09311187	      5.22420619	      3.04199112	      1.68670571
      4.51500000	     -6.01687068	     -3.83742266	      0.53763633	     -0.00192668	     -0.01364701	     -0.11282517	      3.37275104	     13.23980850	     16.38545020	    -14.40799245	      2.37696224	     -6.35490577	      7.53267196	     38.56309616	     -4.01966325	    -11.15242777	    -48.97588742	      4.05953013	      2.06144006	    -23.02161922	      5.19366672	      2.98324490	      1.81452845
      4.52000000	     -6.10348920	     -3.76391121	      0.48490857	      0.00362957	     -0.01407542	     -0.11306554	      3.03758195	     13.16506206	     16.35394024	    -14.44388352	      2.60319274	     -6.37844726	      7.56513098	     38.89726936	     -3.82824284	    -11.31615562	    -47.18483018	      4.36817969	      2.76420993	    -23.00599541	      5.19602682	      2.94423112	      1.89182800
      4.52500000	     -6.10839611	     -3.70515239	      0.37022800	      0.00922334	     -0.01440372	     -0.11325920	      2.59959855	     13.09386022	     16.36162942	    -14.46578162	      2.84476994	     -6.20992181	      7.64176505	     39.08268588	     -3.71451587	    -11.57847748	    -45.35036224	      4.67110198	      3.49482187	    -23.07457214	      5.11478704	      2.94196978	      2.07851448
      4.53000000	     -6.12287295	     -3.66304383	      0.28664235	      0.01479195	     -0.01482588	     -0.11352642	      2.19696363	     13.03322166	     16.27569877	    -14.51732078	      3.12483374	     -6.01119043	      7.76923161	     39.25499470	     -3.58491539	    -11.81120501	    -43.48797350	      4.97177844	      4.13544653	    -23.25423811	      5.03145460	      2.95576139	      2.23006206
      4.53500000	     -6.24866914	     -3.69270259	      0.27909327	      0.02038551	     -0.01545106	     -0.11384375	      1.91306229	     13.05108431	     16.15266676	    -14.55015442	      3.26945591	     -5.97287121	      7.83877552	     39.55852067	     -3.46989391	    -11.93193457	    -41.63657597	      5.16848252	      4.71955801	    -23.33351957	      5.09002998	      3.02773578	      2.28292629
      4.54000000	     -6.16956830	     -3.67230522	      0.11803191	      0.02598846	     -0.01583731	     -0.11399366	      1.42807928	     13.00061210	     16.04753810	    -14.64304280	      3.61289932	     -5.47422421	      8.20551575	     39.54805217	     -3.46144085	    -12.36348840	    -39.75033892	      5.51896639	      5.44663970	    -23.58399804	      4.90582300	      3.05886483	      2.44541086
      4.54500000	     -6.16889100	     -3.69611144	      0.04231609	      0.03162576	     -0.01639425	     -0.11428515	      1.02215943	     12.98514094	     15.84335253	    -14.70154511	      3.88263684	     -5.08546335	      8.54774141	     39.62664684	     -3.41301787	    -12.66226721	    -37.87927737	      5.84412725	      6.11138584	    -23.87666298	      4.81315013	      3.13341814	      2.52168572
      4.55000000	     -6.14825517	     -3.74756314	     -0.02640235	      0.03731603	     -0.01698602	     -0.11458531	      0.59884761	     12.99285928	     15.63585857	    -14.77784568	      4.13796376	     -4.63764229	      8.95946560	     39.66671884	     -3.40243832	    -13.01200291	    -36.03439310	      6.20883770	      6.83735885	    -24.18086339	      4.71833287	      3.24112962	      2.64280028
      4.55500000	     -6.09473654	     -3.77130107	     -0.09270657	      0.04300857	     -0.01756964	     -0.11497995	      0.15866880	     12.94834403	     15.31917005	    -14.86477687	      4.43747184	     -4.07125515	      9.63002119	     39.63194068	     -3.33102420	    -13.31520082	    -34.18022667	      6.65319052	      7.50937927	    -24.89124398	      4.57637094	      3.32502138	      2.75143220
      4.56000000	     -6.08345179	     -3.88811144	     -0.18973711	      0.04877870	     -0.01830339	     -0.11524664	     -0.26559010	     13.02067935	     15.15013244	    -14.93437733	      4.62355050	     -3.63875637	     10.03169106	     39.66581197	     -3.43310669	    -13.79493474	    -32.44181480	      7.16322183	      8.45149495	    -25.12650260	      4.49895159	      3.50605036	      2.88552503
      4.56500000	     -6.06375762	     -3.96876094	     -0.27057636	      0.05458265	     -0.01902996	     -0.11548677	     -0.68923731	     13.05073533	     14.92819798	    -15.02237649	      4.85442701	     -3.14442335	     10.47595180	     39.65950102	     -3.49348121	    -14.30679389	    -30.69977469	      7.59573216	      9.42729244	    -25.29991119	      4.41351689	      3.62253699	      2.92838597
      4.57000000	     -6.00945958	     -4.04759562	     -0.36219477	      0.06042134	     -0.01975312	     -0.11582002	     -1.13916736	     13.06075946	     14.69723395	    -15.13913121	      5.10850745	     -2.53680770	     11.01120088	     39.59441767	     -3.54663456	    -14.85855015	    -28.99242520	      8.07355003	     10.44463977	    -25.47468509	      4.29510287	      3.76524693	      3.05958197
      4.57500000	     -5.95716871	     -4.12237277	     -0.45852623	      0.06633075	     -0.02050735	     -0.11614520	     -1.58495691	     13.06325706	     14.46000576	    -15.27206844	      5.35841998	     -1.91370017	     11.55843009	     39.51468579	     -3.59852446	    -15.44216371	    -27.33159831	      8.57225858	     11.52499825	    -25.63161636	      4.18932234	      3.89567143	      3.17730028
      4.58000000	     -5.87184224	     -4.18282002	     -0.60780669	      0.07225962	     -0.02123327	     -0.11648386	     -2.05567365	     13.03422670	     14.21722672	    -15.42504296	      5.63897347	     -1.19292634	     12.21650997	     39.37007368	     -3.65132088	    -16.03651677	    -25.71082493	      9.12473209	     12.60457764	    -25.88939702	      4.04229444	      4.03139313	      3.38854478
      4.58500000	     -5.83849217	     -4.24211356	     -0.70257849	      0.07825855	     -0.02203403	     -0.11682856	     -2.47530531	     13.01326470	     13.99656632	    -15.58472928	      5.85767878	     -0.57089721	     12.72219216	     39.29778195	     -3.68927918	    -16.69220322	    -24.17918231	      9.61583329	     13.82712109	    -26.04651784	      3.96179832	      4.14127852	      3.46044830
      4.59000000	     -5.79707505	     -4.27284505	     -0.84883050	      0.08436032	     -0.02283561	     -0.11713155	     -2.89542404	     12.95780429	     13.80059796	    -15.78622839	      6.11720584	      0.09241968	     13.23648154	     39.18177037	     -3.71442209	    -17.33913682	    -22.68976249	     10.14243627	     15.00912279	    -26.17882760	      3.89592794	      4.22219642	      3.60203426
      4.59500000	     -5.74398336	     -4.29930735	     -1.02068652	      0.09044072	     -0.02359951	     -0.11745860	     -3.31230169	     12.88625492	     13.61827368	    -16.01568380	      6.36498655	      0.82394092	     13.75867347	     39.04506775	     -3.73682319	    -17.95029449	    -21.26351512	     10.62175570	     16.15848950	    -26.36271518	      3.79990635	      4.31429611	      3.79807910
